<?xml version="1.0" encoding="UTF-8" standalone="no"?>
<!-- Generator: Adobe Illustrator 16.0.4, SVG Export Plug-In . SVG Version: 6.00 Build 0)  -->

<svg
   xmlns:dc="http://purl.org/dc/elements/1.1/"
   xmlns:cc="http://creativecommons.org/ns#"
   xmlns:rdf="http://www.w3.org/1999/02/22-rdf-syntax-ns#"
   xmlns:svg="http://www.w3.org/2000/svg"
   xmlns="http://www.w3.org/2000/svg"
   xmlns:sodipodi="http://sodipodi.sourceforge.net/DTD/sodipodi-0.dtd"
   xmlns:inkscape="http://www.inkscape.org/namespaces/inkscape"
   version="1.1"
   id="Layer_1"
   x="0px"
   y="0px"
   width="50px"
   height="50px"
   viewBox="0 0 50 50"
   enable-background="new 0 0 50 50"
   xml:space="preserve"
   inkscape:version="0.48.4 r9939"
   sodipodi:docname="music62.svg"><metadata
     id="metadata17"><rdf:RDF><cc:Work
         rdf:about=""><dc:format>image/svg+xml</dc:format><dc:type
           rdf:resource="http://purl.org/dc/dcmitype/StillImage" /></cc:Work></rdf:RDF></metadata><defs
     id="defs15" /><sodipodi:namedview
     pagecolor="#ffffff"
     bordercolor="#666666"
     borderopacity="1"
     objecttolerance="10"
     gridtolerance="10"
     guidetolerance="10"
     inkscape:pageopacity="0"
     inkscape:pageshadow="2"
     inkscape:window-width="640"
     inkscape:window-height="480"
     id="namedview13"
     showgrid="false"
     inkscape:zoom="4.72"
     inkscape:cx="25"
     inkscape:cy="25"
     inkscape:window-x="63"
     inkscape:window-y="34"
     inkscape:window-maximized="0"
     inkscape:current-layer="Layer_1" /><g
     id="g3"
     style="fill:#ffffff"
     transform="matrix(2.4618644,0,0,3.0338773,-36.54661,-50.952865)"><g
       id="g5"
       style="fill:#ffffff"><path
         d="m 15,16.927 v 13 h 20 v -13 H 15 z m 9.653,4.096 0.789,4.475 c 0.121,0.689 -0.478,1.371 -1.34,1.521 -0.861,0.152 -1.657,-0.282 -1.779,-0.973 -0.121,-0.688 0.479,-1.37 1.34,-1.521 0.272,-0.049 0.534,-0.032 0.773,0.026 l -0.812,-4.604 0.813,-0.145 c 0.799,0.589 2.848,0.24 3.256,2.555 -0.36,-1.373 -2.086,-0.825 -3.04,-1.334 z"
         id="path7"
         style="fill:#ffffff"
         inkscape:connector-curvature="0" /></g><g
       id="g9"
       style="fill:#ffffff"><polygon
         points="30,33.073 28,31.073 22,31.073 20,33.073 "
         id="polygon11"
         style="fill:#ffffff" /></g></g></svg>