<?xml version="1.0" encoding="UTF-8" standalone="no"?>
<!-- Generator: Adobe Illustrator 16.0.4, SVG Export Plug-In . SVG Version: 6.00 Build 0)  -->

<svg
   xmlns:dc="http://purl.org/dc/elements/1.1/"
   xmlns:cc="http://creativecommons.org/ns#"
   xmlns:rdf="http://www.w3.org/1999/02/22-rdf-syntax-ns#"
   xmlns:svg="http://www.w3.org/2000/svg"
   xmlns="http://www.w3.org/2000/svg"
   xmlns:sodipodi="http://sodipodi.sourceforge.net/DTD/sodipodi-0.dtd"
   xmlns:inkscape="http://www.inkscape.org/namespaces/inkscape"
   version="1.1"
   id="Capa_1"
   x="0px"
   y="0px"
   width="32px"
   height="32px"
   viewBox="0 0 32 32"
   enable-background="new 0 0 32 32"
   xml:space="preserve"
   inkscape:version="0.48.4 r9939"
   sodipodi:docname="news3.svg"><metadata
     id="metadata21"><rdf:RDF><cc:Work
         rdf:about=""><dc:format>image/svg+xml</dc:format><dc:type
           rdf:resource="http://purl.org/dc/dcmitype/StillImage" /></cc:Work></rdf:RDF></metadata><defs
     id="defs19" /><sodipodi:namedview
     pagecolor="#ffffff"
     bordercolor="#666666"
     borderopacity="1"
     objecttolerance="10"
     gridtolerance="10"
     guidetolerance="10"
     inkscape:pageopacity="0"
     inkscape:pageshadow="2"
     inkscape:window-width="640"
     inkscape:window-height="480"
     id="namedview17"
     showgrid="false"
     inkscape:zoom="7.375"
     inkscape:cx="16"
     inkscape:cy="16"
     inkscape:window-x="65"
     inkscape:window-y="34"
     inkscape:window-maximized="0"
     inkscape:current-layer="Capa_1" /><g
     id="g3"
     style="fill:#ffffff"><path
       d="M28,10V6H0v22c0,0,0,4,4,4h25c0,0,3-0.062,3-4V10H28z M4,30c-2,0-2-2-2-2V8h24v20c0,0.921,0.284,1.559,0.676,2H4z"
       id="path5"
       style="fill:#ffffff" /><rect
       x="4"
       y="12"
       width="20"
       height="2"
       id="rect7"
       style="fill:#ffffff" /><rect
       x="15"
       y="24"
       width="7"
       height="2"
       id="rect9"
       style="fill:#ffffff" /><rect
       x="15"
       y="20"
       width="9"
       height="2"
       id="rect11"
       style="fill:#ffffff" /><rect
       x="15"
       y="16"
       width="9"
       height="2"
       id="rect13"
       style="fill:#ffffff" /><rect
       x="4"
       y="16"
       width="9"
       height="10"
       id="rect15"
       style="fill:#ffffff" /></g></svg>