<?xml version="1.0" encoding="UTF-8" standalone="no"?>
<!-- Generator: Adobe Illustrator 16.0.0, SVG Export Plug-In . SVG Version: 6.00 Build 0)  -->

<svg
   xmlns:dc="http://purl.org/dc/elements/1.1/"
   xmlns:cc="http://creativecommons.org/ns#"
   xmlns:rdf="http://www.w3.org/1999/02/22-rdf-syntax-ns#"
   xmlns:svg="http://www.w3.org/2000/svg"
   xmlns="http://www.w3.org/2000/svg"
   xmlns:sodipodi="http://sodipodi.sourceforge.net/DTD/sodipodi-0.dtd"
   xmlns:inkscape="http://www.inkscape.org/namespaces/inkscape"
   version="1.1"
   id="Capa_1"
   x="0px"
   y="0px"
   width="21.282px"
   height="19.779px"
   viewBox="0 0 21.282 19.779"
   style="enable-background:new 0 0 21.282 19.779;"
   xml:space="preserve"
   inkscape:version="0.48.4 r9939"
   sodipodi:docname="blog.svg"><metadata
     id="metadata39"><rdf:RDF><cc:Work
         rdf:about=""><dc:format>image/svg+xml</dc:format><dc:type
           rdf:resource="http://purl.org/dc/dcmitype/StillImage" /></cc:Work></rdf:RDF></metadata><defs
     id="defs37" /><sodipodi:namedview
     pagecolor="#ffffff"
     bordercolor="#666666"
     borderopacity="1"
     objecttolerance="10"
     gridtolerance="10"
     guidetolerance="10"
     inkscape:pageopacity="0"
     inkscape:pageshadow="2"
     inkscape:window-width="640"
     inkscape:window-height="480"
     id="namedview35"
     showgrid="false"
     inkscape:zoom="11.931847"
     inkscape:cx="10.641"
     inkscape:cy="9.8894997"
     inkscape:window-x="65"
     inkscape:window-y="34"
     inkscape:window-maximized="0"
     inkscape:current-layer="Capa_1" /><path
     d="M6.75,19.779c-0.921,0-1.797-0.161-2.625-0.484c-0.829-0.325-1.544-0.767-2.151-1.329c-0.606-0.562-1.087-1.224-1.442-1.986  C0.181,15.218,0,14.408,0,13.549V6.257c0-0.851,0.181-1.656,0.531-2.418c0.355-0.763,0.836-1.429,1.442-2  c0.607-0.572,1.322-1.021,2.151-1.349C4.953,0.165,5.829,0,6.75,0h4.703c0.435,0.053,0.904,0.178,1.412,0.373  c0.511,0.196,1.007,0.442,1.487,0.741c0.486,0.296,0.929,0.642,1.338,1.032c0.407,0.392,0.732,0.816,0.967,1.267l0.188,0.348  c0.053,0.098,0.1,0.215,0.144,0.354c0.046,0.137,0.093,0.316,0.143,0.533c0.05,0.218,0.099,0.518,0.151,0.9  c0.054,0.395,0.106,0.736,0.159,1.025c0.053,0.29,0.183,0.512,0.385,0.67c0.126,0.105,0.332,0.174,0.624,0.205  c0.295,0.029,0.593,0.049,0.897,0.06c0.306,0.008,0.592,0.019,0.858,0.029c0.265,0.009,0.441,0.053,0.531,0.128l0.291,0.229  l0.2,0.386l0.053,0.265l-0.053,5.037c0,0.845-0.177,1.648-0.531,2.412c-0.355,0.762-0.836,1.422-1.442,1.984  c-0.607,0.558-1.325,0.999-2.151,1.321c-0.828,0.321-1.704,0.482-2.625,0.482H6.75z M6.829,5.141c-0.365,0-0.669,0.118-0.922,0.353  c-0.254,0.237-0.38,0.519-0.38,0.842c0,0.325,0.126,0.602,0.38,0.833C6.16,7.401,6.464,7.518,6.829,7.518h3.733  c0.363,0,0.669-0.117,0.925-0.354c0.251-0.235,0.378-0.513,0.378-0.827c0-0.323-0.127-0.605-0.378-0.842  c-0.256-0.235-0.562-0.353-0.925-0.353H6.829z M5.527,13.639c0,0.273,0.126,0.509,0.38,0.704c0.253,0.197,0.557,0.295,0.922,0.295  h7.598c0.364,0,0.666-0.098,0.911-0.295c0.241-0.195,0.364-0.431,0.364-0.704c0-0.275-0.123-0.507-0.364-0.696  c-0.245-0.188-0.547-0.283-0.911-0.283H6.829c-0.365,0-0.669,0.096-0.922,0.283C5.653,13.131,5.527,13.363,5.527,13.639z"
     id="path3"
     style="fill:#ffffff" /><g
     id="g5" /><g
     id="g7" /><g
     id="g9" /><g
     id="g11" /><g
     id="g13" /><g
     id="g15" /><g
     id="g17" /><g
     id="g19" /><g
     id="g21" /><g
     id="g23" /><g
     id="g25" /><g
     id="g27" /><g
     id="g29" /><g
     id="g31" /><g
     id="g33" /></svg>