<?xml version="1.0" encoding="UTF-8" standalone="no"?>
<!-- Generator: Adobe Illustrator 17.0.0, SVG Export Plug-In . SVG Version: 6.00 Build 0)  -->

<svg
   xmlns:dc="http://purl.org/dc/elements/1.1/"
   xmlns:cc="http://creativecommons.org/ns#"
   xmlns:rdf="http://www.w3.org/1999/02/22-rdf-syntax-ns#"
   xmlns:svg="http://www.w3.org/2000/svg"
   xmlns="http://www.w3.org/2000/svg"
   xmlns:sodipodi="http://sodipodi.sourceforge.net/DTD/sodipodi-0.dtd"
   xmlns:inkscape="http://www.inkscape.org/namespaces/inkscape"
   version="1.1"
   id="Capa_1"
   x="0px"
   y="0px"
   width="64px"
   height="64px"
   viewBox="0 0 64 64"
   style="enable-background:new 0 0 64 64;"
   xml:space="preserve"
   inkscape:version="0.48.4 r9939"
   sodipodi:docname="H.svg"><metadata
     id="metadata15"><rdf:RDF><cc:Work
         rdf:about=""><dc:format>image/svg+xml</dc:format><dc:type
           rdf:resource="http://purl.org/dc/dcmitype/StillImage" /></cc:Work></rdf:RDF></metadata><defs
     id="defs13" /><sodipodi:namedview
     pagecolor="#ffffff"
     bordercolor="#666666"
     borderopacity="1"
     objecttolerance="10"
     gridtolerance="10"
     guidetolerance="10"
     inkscape:pageopacity="0"
     inkscape:pageshadow="2"
     inkscape:window-width="640"
     inkscape:window-height="480"
     id="namedview11"
     showgrid="false"
     inkscape:zoom="3.6875"
     inkscape:cx="32"
     inkscape:cy="32"
     inkscape:window-x="53"
     inkscape:window-y="24"
     inkscape:window-maximized="0"
     inkscape:current-layer="Capa_1" /><g
     id="g3"
     style="fill:#ffffff"
     transform="matrix(1,0,0,1.2322622,0,-10.495466)"><circle
       cx="10.887"
       cy="40.305"
       r="4.8829999"
       id="circle5"
       style="fill:#ffffff"
       d="m 15.77,40.305 c 0,2.696807 -2.186194,4.883 -4.883,4.883 -2.6968063,0 -4.8829998,-2.186193 -4.8829998,-4.883 0,-2.696806 2.1861935,-4.883 4.8829998,-4.883 2.696806,0 4.883,2.186194 4.883,4.883 z"
       sodipodi:cx="10.887"
       sodipodi:cy="40.305"
       sodipodi:rx="4.8829999"
       sodipodi:ry="4.8829999" /><circle
       cx="50.953999"
       cy="40.305"
       r="4.8829999"
       id="circle7"
       style="fill:#ffffff"
       d="m 55.836998,40.305 c 0,2.696807 -2.186193,4.883 -4.882999,4.883 -2.696807,0 -4.883,-2.186193 -4.883,-4.883 0,-2.696806 2.186193,-4.883 4.883,-4.883 2.696806,0 4.882999,2.186194 4.882999,4.883 z"
       sodipodi:cx="50.953999"
       sodipodi:cy="40.305"
       sodipodi:rx="4.8829999"
       sodipodi:ry="4.8829999" /><path
       d="M 2.267,37.672 H 3.87 c 0.079,0.764 0.163,1.38 0.163,1.38 1.486,-0.318 4.076,-5.966 7.346,-5.966 3.27,0 5.393,2.802 5.647,5.35 0.254,2.548 1.783,2.25 1.783,2.25 12.314,0.679 25.434,-0.608 25.434,-0.608 -0.34,-6.765 8.747,-8.734 11.04,-4.063 2.293,4.671 6.879,4.034 6.879,4.034 L 62.056,38.796 C 63.968,38.67 63,38.065 63,38.065 c 0,0 0,0 0,-1.274 0,-1.274 -3.257,-1.497 -3.257,-1.497 C 52.44,14.488 25.18,21.983 25.18,21.983 23.906,24.658 20.722,27.397 20.722,27.397 11.868,26.823 6.9,31.982 6.9,31.982 5.247,32.654 4.205,33.786 3.866,34.869 H 2.267 c -0.516,0 -0.934,0.627 -0.934,1.401 0,0.774 0.419,1.402 0.934,1.402 z"
       id="path9"
       style="fill:#ffffff"
       inkscape:connector-curvature="0" /></g></svg>