<?xml version="1.0" encoding="UTF-8" standalone="no"?>
<!-- Generator: Adobe Illustrator 15.0.0, SVG Export Plug-In . SVG Version: 6.00 Build 0)  -->

<svg
   xmlns:dc="http://purl.org/dc/elements/1.1/"
   xmlns:cc="http://creativecommons.org/ns#"
   xmlns:rdf="http://www.w3.org/1999/02/22-rdf-syntax-ns#"
   xmlns:svg="http://www.w3.org/2000/svg"
   xmlns="http://www.w3.org/2000/svg"
   xmlns:sodipodi="http://sodipodi.sourceforge.net/DTD/sodipodi-0.dtd"
   xmlns:inkscape="http://www.inkscape.org/namespaces/inkscape"
   version="1.1"
   id="Layer_1"
   x="0px"
   y="0px"
   width="64px"
   height="64px"
   viewBox="0 0 64 64"
   enable-background="new 0 0 64 64"
   xml:space="preserve"
   inkscape:version="0.48.4 r9939"
   sodipodi:docname="moaiicon.svg"><metadata
     id="metadata21"><rdf:RDF><cc:Work
         rdf:about=""><dc:format>image/svg+xml</dc:format><dc:type
           rdf:resource="http://purl.org/dc/dcmitype/StillImage" /></cc:Work></rdf:RDF></metadata><defs
     id="defs19" /><sodipodi:namedview
     pagecolor="#ffffff"
     bordercolor="#666666"
     borderopacity="1"
     objecttolerance="10"
     gridtolerance="10"
     guidetolerance="10"
     inkscape:pageopacity="0"
     inkscape:pageshadow="2"
     inkscape:window-width="640"
     inkscape:window-height="480"
     id="namedview17"
     showgrid="false"
     inkscape:zoom="3.6875"
     inkscape:cx="32"
     inkscape:cy="32"
     inkscape:window-x="65"
     inkscape:window-y="34"
     inkscape:window-maximized="0"
     inkscape:current-layer="Layer_1" /><g
     id="g3"
     style="fill:#ffffff"
     transform="matrix(1.1258092,0,0,1.2441993,-4.0260183,-7.6785392)"><g
       id="g5"
       style="fill:#ffffff"><circle
         cx="38.323002"
         cy="30.938"
         r="4.2930002"
         id="circle7"
         style="fill:#ffffff"
         d="m 42.616002,30.938 c 0,2.370958 -1.922042,4.293 -4.293,4.293 -2.370959,0 -4.293,-1.922042 -4.293,-4.293 0,-2.370959 1.922041,-4.293 4.293,-4.293 2.370958,0 4.293,1.922041 4.293,4.293 z"
         sodipodi:cx="38.323002"
         sodipodi:cy="30.938"
         sodipodi:rx="4.2930002"
         sodipodi:ry="4.2930002" /></g><g
       id="g9"
       style="fill:#ffffff"><path
         d="m 38.326,19.64 c -6.232,0 -11.299,5.07 -11.299,11.298 0,6.228 5.067,11.296 11.299,11.296 6.228,0 11.295,-5.068 11.295,-11.296 0,-6.229 -5.067,-11.298 -11.295,-11.298 z m -0.081,19.782 c -4.705,0 -8.532,-3.827 -8.532,-8.531 0,-4.705 3.827,-8.531 8.532,-8.531 4.704,0 8.532,3.826 8.532,8.531 0,4.704 -3.828,8.531 -8.532,8.531 z"
         id="path11"
         style="fill:#ffffff"
         inkscape:connector-curvature="0" /></g><g
       id="g13"
       style="fill:#ffffff"><path
         d="m 58.969,21.313 h -1.672 v -0.417 c 0,-3.706 -3.015,-6.722 -6.723,-6.722 H 47.357 L 43.27,10.344 H 31.924 l -3.319,3.83 h -6.854 c -0.304,-1.266 -1.136,-2.129 -2.128,-2.129 h -4.842 c -0.999,0 -1.835,0.874 -2.135,2.155 -3.43,0.3 -6.128,3.19 -6.128,6.695 v 0.417 H 5.032 c -0.583,0 -1.053,0.472 -1.053,1.053 0,0.58 0.471,1.052 1.053,1.052 h 1.486 v 23.516 c 0,3.706 3.014,6.721 6.721,6.721 h 37.336 c 3.708,0 6.723,-3.015 6.723,-6.721 V 23.418 h 1.672 c 0.58,0 1.053,-0.472 1.053,-1.052 -0.002,-0.581 -0.474,-1.053 -1.054,-1.053 z m -38.73,-2.177 c 0,0.739 -0.602,1.34 -1.343,1.34 h -3.442 c -0.742,0 -1.341,-0.601 -1.341,-1.34 v -0.788 c 0,-0.741 0.599,-1.341 1.341,-1.341 h 3.442 c 0.742,0 1.343,0.6 1.343,1.341 v 0.788 z m 18.087,25.343 c -7.467,0 -13.544,-6.076 -13.544,-13.541 0,-7.466 6.077,-13.542 13.544,-13.542 7.465,0 13.539,6.077 13.539,13.542 0,7.464 -6.074,13.541 -13.539,13.541 z"
         id="path15"
         style="fill:#ffffff"
         inkscape:connector-curvature="0" /></g></g></svg>