<?xml version="1.0" encoding="UTF-8" standalone="no"?>
<!-- Generator: Adobe Illustrator 16.0.0, SVG Export Plug-In . SVG Version: 6.00 Build 0)  -->

<svg
   xmlns:dc="http://purl.org/dc/elements/1.1/"
   xmlns:cc="http://creativecommons.org/ns#"
   xmlns:rdf="http://www.w3.org/1999/02/22-rdf-syntax-ns#"
   xmlns:svg="http://www.w3.org/2000/svg"
   xmlns="http://www.w3.org/2000/svg"
   xmlns:sodipodi="http://sodipodi.sourceforge.net/DTD/sodipodi-0.dtd"
   xmlns:inkscape="http://www.inkscape.org/namespaces/inkscape"
   version="1.1"
   id="Layer_1"
   x="0px"
   y="0px"
   width="31.385px"
   height="28.254px"
   viewBox="0 0 31.385 28.254"
   style="enable-background:new 0 0 31.385 28.254;"
   xml:space="preserve"
   inkscape:version="0.48.4 r9939"
   sodipodi:docname="107.svg"><metadata
     id="metadata55"><rdf:RDF><cc:Work
         rdf:about=""><dc:format>image/svg+xml</dc:format><dc:type
           rdf:resource="http://purl.org/dc/dcmitype/StillImage" /></cc:Work></rdf:RDF></metadata><defs
     id="defs53" /><sodipodi:namedview
     pagecolor="#ffffff"
     bordercolor="#666666"
     borderopacity="1"
     objecttolerance="10"
     gridtolerance="10"
     guidetolerance="10"
     inkscape:pageopacity="0"
     inkscape:pageshadow="2"
     inkscape:window-width="640"
     inkscape:window-height="480"
     id="namedview51"
     showgrid="false"
     inkscape:zoom="11.812643"
     inkscape:cx="15.6925"
     inkscape:cy="16.932222"
     inkscape:window-x="65"
     inkscape:window-y="34"
     inkscape:window-maximized="0"
     inkscape:current-layer="Layer_1" /><g
     id="g3"
     style="fill:#ffffff"><path
       d="M26.015,24.829l3.746-15.818L12.873,7.355l-2.418,12.695l-0.002-0.001L0.228,21.564l13.642,4.896L26.015,24.829z    M13.565,8.472l14.496,1.704L24.906,23.5l-13.511-3.821L13.565,8.472z M10.474,24.55l-3.348-1.279l1.614-0.215l3.756,1.254   L10.474,24.55z"
       id="path5"
       style="fill:#ffffff" /><polygon
       points="30.547,9.458 26.815,25.381 13.824,27.28 13.824,27.274 0,22.218 0,23.003 13.731,28.254 27.519,26.062    31.385,10.04  "
       id="polygon7"
       style="fill:#ffffff" /><path
       d="M2.207,8.425c0.918,0.694,2.19,0.59,2.986-0.197l0.021,0.017l3.612-4.775l0.006,2.456l0.902-0.004L9.728,2.893l0.376-0.497   l0.005,2.109h0.902l-0.007-3.03L11.513,0.8l-0.425-0.32l-0.291-0.22l-0.29-0.22L5.842,6.207C5.747,5.655,5.452,5.136,4.97,4.771   C3.96,4.008,2.524,4.209,1.762,5.216C0.999,6.226,1.198,7.662,2.207,8.425z"
       id="path9"
       style="fill:#ffffff" /><path
       d="M11.746,10.218L10.399,9.18l-0.123-0.458l-0.29,0.077L9.789,8.851L9.591,8.907l1.131,4.191   c-0.278-0.147-0.61-0.196-0.938-0.106c-0.686,0.184-1.091,0.89-0.907,1.575c0.185,0.687,0.891,1.093,1.577,0.908   c0.625-0.168,1.016-0.77,0.941-1.394l0.014-0.004l-0.875-3.247l1.092,0.843l0.309-0.4l-1.346-1.04l-0.091-0.339l0.938,0.726   L11.746,10.218z"
       id="path11"
       style="fill:#ffffff" /><path
       d="M16.757,4.319c-0.497,0.508-0.489,1.321,0.019,1.818c0.508,0.497,1.323,0.489,1.819-0.018   c0.453-0.463,0.484-1.179,0.104-1.679l0.01-0.01l-2.403-2.354l1.368,0.173l0.064-0.504l-1.688-0.212l-0.25-0.246l1.175,0.147   l0.063-0.502L15.35,0.724l-0.338-0.332l-0.209,0.214l-0.144,0.146l-0.143,0.147l3.104,3.037   C17.305,3.949,16.994,4.075,16.757,4.319z"
       id="path13"
       style="fill:#ffffff" /><path
       d="M23.795,6.671c0.548,0,1.002-0.405,1.078-0.933h0.013V1.923l3.029-0.557v2.711c-0.195-0.182-0.457-0.295-0.745-0.295   c-0.603,0-1.091,0.489-1.091,1.09c0,0.604,0.489,1.092,1.091,1.092c0.549,0,1.001-0.404,1.079-0.931h0.012V0.74l0.021-0.004   L28.275,0l-3.739,0.692L24.54,1.1h0v3.684c-0.195-0.182-0.457-0.295-0.745-0.295c-0.603,0-1.091,0.489-1.091,1.092   C22.704,6.182,23.192,6.671,23.795,6.671z M24.886,1.366l3.029-0.562v0.36l-3.029,0.556V1.366z"
       id="path15"
       style="fill:#ffffff" /><path
       d="M7.154,18.728l0.332-3.789l-0.393-0.104l0,0l-3.55-0.983c0.228-0.14,0.406-0.361,0.482-0.639   c0.161-0.582-0.179-1.183-0.76-1.344c-0.581-0.161-1.182,0.18-1.343,0.76c-0.146,0.529,0.124,1.074,0.611,1.289L2.53,13.929   l3.677,1.02l-0.274,3.067l-2.611-0.723c0.227-0.142,0.405-0.363,0.482-0.641c0.161-0.58-0.18-1.182-0.759-1.341   c-0.582-0.162-1.183,0.178-1.344,0.758c-0.147,0.529,0.123,1.073,0.61,1.289l-0.003,0.013l4.136,1.146l-0.002,0.021L7.154,18.728z    M6.128,18.069l0.273-3.066l0.343,0.094l-0.268,3.068L6.128,18.069z"
       id="path17"
       style="fill:#ffffff" /><path
       d="M19.603,15.153c0.574-0.183,0.891-0.797,0.708-1.37c-0.183-0.574-0.797-0.891-1.371-0.708   c-0.522,0.165-0.831,0.689-0.744,1.217l-0.012,0.003l1.16,3.636l-2.717,1.45L15.803,16.8c0.242,0.112,0.525,0.142,0.799,0.053   c0.574-0.183,0.891-0.797,0.707-1.37c-0.183-0.575-0.797-0.892-1.371-0.709c-0.523,0.167-0.832,0.69-0.744,1.216l-0.013,0.006   l1.305,4.088l-0.018,0.011l0.23,0.698l3.352-1.797l-0.127-0.387l-1.121-3.51C19.045,15.214,19.328,15.241,19.603,15.153z    M19.513,18.462l-2.714,1.455l-0.11-0.345l2.716-1.45L19.513,18.462z"
       id="path19"
       style="fill:#ffffff" /></g><g
     id="g21" /><g
     id="g23" /><g
     id="g25" /><g
     id="g27" /><g
     id="g29" /><g
     id="g31" /><g
     id="g33" /><g
     id="g35" /><g
     id="g37" /><g
     id="g39" /><g
     id="g41" /><g
     id="g43" /><g
     id="g45" /><g
     id="g47" /><g
     id="g49" /></svg>