<?xml version="1.0" encoding="UTF-8" standalone="no"?>
<!-- Generator: Adobe Illustrator 16.0.4, SVG Export Plug-In . SVG Version: 6.00 Build 0)  -->

<svg
   xmlns:dc="http://purl.org/dc/elements/1.1/"
   xmlns:cc="http://creativecommons.org/ns#"
   xmlns:rdf="http://www.w3.org/1999/02/22-rdf-syntax-ns#"
   xmlns:svg="http://www.w3.org/2000/svg"
   xmlns="http://www.w3.org/2000/svg"
   xmlns:sodipodi="http://sodipodi.sourceforge.net/DTD/sodipodi-0.dtd"
   xmlns:inkscape="http://www.inkscape.org/namespaces/inkscape"
   version="1.1"
   id="Capa_1"
   x="0px"
   y="0px"
   width="46"
   height="64"
   viewBox="0 0 46 64"
   enable-background="new 0 0 64 64"
   xml:space="preserve"
   inkscape:version="0.48.4 r9939"
   sodipodi:docname="arm1.svg"><metadata
     id="metadata13"><rdf:RDF><cc:Work
         rdf:about=""><dc:format>image/svg+xml</dc:format><dc:type
           rdf:resource="http://purl.org/dc/dcmitype/StillImage" /></cc:Work></rdf:RDF></metadata><defs
     id="defs11" /><sodipodi:namedview
     pagecolor="#ffffff"
     bordercolor="#666666"
     borderopacity="1"
     objecttolerance="10"
     gridtolerance="10"
     guidetolerance="10"
     inkscape:pageopacity="0"
     inkscape:pageshadow="2"
     inkscape:window-width="791"
     inkscape:window-height="480"
     id="namedview9"
     showgrid="false"
     inkscape:zoom="3.6875"
     inkscape:cx="84.881356"
     inkscape:cy="32"
     inkscape:window-x="65"
     inkscape:window-y="34"
     inkscape:window-maximized="0"
     inkscape:current-layer="Capa_1" /><g
     id="g3"
     style="fill:#ffffff"
     transform="matrix(1.2303627,0,0,1.2303627,-13.825558,-7.1007187)"><circle
       cx="32.339001"
       cy="11.716"
       r="4.2600002"
       id="circle5"
       style="fill:#ffffff"
       sodipodi:cx="32.339001"
       sodipodi:cy="11.716"
       sodipodi:rx="4.2600002"
       sodipodi:ry="4.2600002"
       d="m 36.599001,11.716 c 0,2.352733 -1.907267,4.26 -4.26,4.26 -2.352733,0 -4.260001,-1.907267 -4.260001,-4.26 0,-2.3527336 1.907268,-4.2600006 4.260001,-4.2600006 2.352733,0 4.26,1.907267 4.26,4.2600006 z" /><path
       d="M 42.959,23.201 C 42.041,21.21 40.871,19.318 39.125,17.95 38.937,17.803 38.742,17.705 38.544,17.63 38.531,17.614 38.523,17.596 38.51,17.581 35.471,16.055 28.704,16.748 26.641,17.172 l -0.003,0.062 c -3.11,-2.076 -4.824,-5.799 -5.429,-9.503 -0.47,-2.873 -4.827,-1.65 -4.361,1.202 0.928,5.678 4.26,10.906 9.53,13.254 l -0.033,0.625 c 0.004,3.125 0.021,14.853 0.021,15.019 l 0.083,17.596 c 0,1.347 1.122,2.438 2.505,2.438 1.384,0 2.506,-1.092 2.506,-2.438 v -17.05 c 0,0 -0.023,-0.842 0.857,-0.832 0.881,0.008 0.96,0.873 0.96,0.873 v 17.055 c 0,1.346 1.123,2.438 2.506,2.438 1.385,0 2.369,-1.093 2.369,-2.438 V 39.104 l -0.008,-2.596 c 1.957,-1.256 3.479,-3.066 4.571,-5.114 0.604,-1.125 1.644,-2.694 1.644,-4.033 0,-1.365 -0.849,-2.969 -1.4,-4.16 z m -2.857,4.391 c -0.268,0.598 -0.541,1.197 -0.867,1.766 -0.34,0.593 -0.705,1.159 -1.104,1.695 L 38.11,22.762 c 0.972,1.352 1.646,2.933 2.111,4.523 -0.028,0.087 -0.065,0.188 -0.119,0.307 z m 0.168,-0.48 c -0.002,-0.209 0.042,-0.206 0,0 l 0,0 z"
       id="path7"
       style="fill:#ffffff"
       inkscape:connector-curvature="0" /></g></svg>