<?xml version="1.0" encoding="UTF-8" standalone="no"?>
<!-- Generator: Adobe Illustrator 15.0.0, SVG Export Plug-In . SVG Version: 6.00 Build 0)  -->

<svg
   xmlns:dc="http://purl.org/dc/elements/1.1/"
   xmlns:cc="http://creativecommons.org/ns#"
   xmlns:rdf="http://www.w3.org/1999/02/22-rdf-syntax-ns#"
   xmlns:svg="http://www.w3.org/2000/svg"
   xmlns="http://www.w3.org/2000/svg"
   xmlns:sodipodi="http://sodipodi.sourceforge.net/DTD/sodipodi-0.dtd"
   xmlns:inkscape="http://www.inkscape.org/namespaces/inkscape"
   version="1.1"
   id="Layer_1"
   x="0px"
   y="0px"
   width="16"
   height="26"
   viewBox="0 0 16 26"
   enable-background="new 0 0 26 26"
   xml:space="preserve"
   inkscape:version="0.48.4 r9939"
   sodipodi:docname="JP3BGY.svg"><metadata
     id="metadata9"><rdf:RDF><cc:Work
         rdf:about=""><dc:format>image/svg+xml</dc:format><dc:type
           rdf:resource="http://purl.org/dc/dcmitype/StillImage" /></cc:Work></rdf:RDF></metadata><defs
     id="defs7" /><sodipodi:namedview
     pagecolor="#ffffff"
     bordercolor="#666666"
     borderopacity="1"
     objecttolerance="10"
     gridtolerance="10"
     guidetolerance="10"
     inkscape:pageopacity="0"
     inkscape:pageshadow="2"
     inkscape:window-width="1120"
     inkscape:window-height="806"
     id="namedview5"
     showgrid="false"
     inkscape:zoom="25.346154"
     inkscape:cx="10.040971"
     inkscape:cy="16.156297"
     inkscape:window-x="224"
     inkscape:window-y="165"
     inkscape:window-maximized="0"
     inkscape:current-layer="Layer_1" /><g
     id="g2983"
     style="fill:#ffffff"
     transform="matrix(1.1527152,0,0,1.1527152,-6.0816087,-1.1816801)"><path
       inkscape:connector-curvature="0"
       style="fill:#ffffff"
       id="path3"
       d="m 16.74707,8.9845473 h -0.222601 v -0.9675 c 0,-0.48875 -0.462775,-0.885 -1.035386,-0.885 -0.572612,0 -1.035387,0.39625 -1.035387,0.885 v 0.9675 H 9.916739 v -6.6075 c 0,-0.395 -0.374907,-0.715 -0.837682,-0.715 -0.4627754,0 -0.8391466,0.32 -0.8391466,0.715 v 6.6075 H 8.0671019 c -0.6531577,0 -1.1832992,0.4525 -1.1832992,1.0112482 V 22.619545 c 0,0.5575 0.528677,1.01125 1.1832992,1.01125 h 8.6785041 c 0.651693,0 1.183299,-0.4525 1.183299,-1.01125 V 9.9945455 C 17.930428,9.4370473 17.398763,8.9845473 16.74707,8.9845473 z M 15.956252,15.087045 H 8.8564561 v -1.2625 h 7.0997959 v 1.2625 z m 0.07469,-2.6525 H 8.9311446 v -1.2625 H 16.03094 v 1.2625 z" /><rect
       ry="0.29590258"
       y="10.770864"
       x="6.4309559"
       height="1.5386945"
       width="0.82852739"
       id="rect3019"
       style="fill:#ffffff" /></g></svg>