<?xml version="1.0" encoding="UTF-8" standalone="no"?>
<!-- Generator: Adobe Illustrator 16.0.4, SVG Export Plug-In . SVG Version: 6.00 Build 0)  -->

<svg
   xmlns:dc="http://purl.org/dc/elements/1.1/"
   xmlns:cc="http://creativecommons.org/ns#"
   xmlns:rdf="http://www.w3.org/1999/02/22-rdf-syntax-ns#"
   xmlns:svg="http://www.w3.org/2000/svg"
   xmlns="http://www.w3.org/2000/svg"
   xmlns:sodipodi="http://sodipodi.sourceforge.net/DTD/sodipodi-0.dtd"
   xmlns:inkscape="http://www.inkscape.org/namespaces/inkscape"
   version="1.1"
   id="Capa_1"
   x="0px"
   y="0px"
   width="16px"
   height="16px"
   viewBox="0 0 16 16"
   enable-background="new 0 0 16 16"
   xml:space="preserve"
   inkscape:version="0.48.4 r9939"
   sodipodi:docname="New.svg"><metadata
     id="metadata9"><rdf:RDF><cc:Work
         rdf:about=""><dc:format>image/svg+xml</dc:format><dc:type
           rdf:resource="http://purl.org/dc/dcmitype/StillImage" /></cc:Work></rdf:RDF></metadata><defs
     id="defs7" /><sodipodi:namedview
     pagecolor="#ffffff"
     bordercolor="#666666"
     borderopacity="1"
     objecttolerance="10"
     gridtolerance="10"
     guidetolerance="10"
     inkscape:pageopacity="0"
     inkscape:pageshadow="2"
     inkscape:window-width="952"
     inkscape:window-height="685"
     id="namedview5"
     showgrid="false"
     inkscape:zoom="14.75"
     inkscape:cx="7.3079538"
     inkscape:cy="10.711864"
     inkscape:window-x="400"
     inkscape:window-y="339"
     inkscape:window-maximized="0"
     inkscape:current-layer="Capa_1" /><path
     d="M8,1.021c-4.378,0-7.939,2.922-7.939,6.516c0,1.693,0.817,3.331,2.255,4.544C1.99,12.82,1.555,13.52,1.019,14.158  c-0.124,0.15-0.152,0.357-0.07,0.533s0.259,0.287,0.453,0.287c1.435,0,2.649-0.349,4.028-1.162c0.669,0.106,1.99,0.238,2.57,0.238  c4.378,0,7.939-2.924,7.939-6.518C15.939,3.943,12.378,1.021,8,1.021z M8,13.055c-0.574,0-2.068-0.154-2.573-0.253  c-0.122-0.022-0.249,0.001-0.355,0.064C4.14,13.436,3.327,13.762,2.457,13.9c0.375-0.568,0.687-1.168,0.93-1.793  c0.081-0.209,0.015-0.445-0.164-0.58c-1.395-1.057-2.162-2.475-2.162-3.99C1.061,4.495,4.174,2.02,8,2.02s6.939,2.475,6.939,5.517  S11.826,13.055,8,13.055z"
     id="path3"
     style="fill:#ffffff" /><text
     xml:space="preserve"
     style="font-size:6.5785265px;font-style:normal;font-variant:normal;font-weight:bold;font-stretch:normal;line-height:125%;letter-spacing:0px;word-spacing:0px;fill:#ffffff;fill-opacity:1;stroke:none;font-family:Loma;-inkscape-font-specification:Loma Bold"
     x="1.3147552"
     y="9.4001646"
     id="text2986"
     sodipodi:linespacing="125%"><tspan
       sodipodi:role="line"
       id="tspan2988"
       x="1.3147552"
       y="9.4001646"
       style="font-style:normal;font-variant:normal;font-weight:bold;font-stretch:normal;fill:#ffffff;font-family:Loma;-inkscape-font-specification:Loma Bold">New</tspan></text>
</svg>