<?xml version="1.0" encoding="UTF-8" standalone="no"?>
<!-- Generator: Adobe Illustrator 16.0.0, SVG Export Plug-In . SVG Version: 6.00 Build 0)  -->

<svg
   xmlns:dc="http://purl.org/dc/elements/1.1/"
   xmlns:cc="http://creativecommons.org/ns#"
   xmlns:rdf="http://www.w3.org/1999/02/22-rdf-syntax-ns#"
   xmlns:svg="http://www.w3.org/2000/svg"
   xmlns="http://www.w3.org/2000/svg"
   xmlns:sodipodi="http://sodipodi.sourceforge.net/DTD/sodipodi-0.dtd"
   xmlns:inkscape="http://www.inkscape.org/namespaces/inkscape"
   version="1.1"
   x="0px"
   y="0px"
   width="24.332px"
   height="24.311px"
   viewBox="0 0 24.332 24.311"
   style="enable-background:new 0 0 24.332 24.311;"
   xml:space="preserve"
   id="svg2"
   inkscape:version="0.48.4 r9939"
   sodipodi:docname="rss8.svg"><metadata
     id="metadata16"><rdf:RDF><cc:Work
         rdf:about=""><dc:format>image/svg+xml</dc:format><dc:type
           rdf:resource="http://purl.org/dc/dcmitype/StillImage" /></cc:Work></rdf:RDF></metadata><defs
     id="defs14" /><sodipodi:namedview
     pagecolor="#ffffff"
     bordercolor="#666666"
     borderopacity="1"
     objecttolerance="10"
     gridtolerance="10"
     guidetolerance="10"
     inkscape:pageopacity="0"
     inkscape:pageshadow="2"
     inkscape:window-width="842"
     inkscape:window-height="480"
     id="namedview12"
     showgrid="false"
     inkscape:zoom="9.7075395"
     inkscape:cx="12.166"
     inkscape:cy="12.1555"
     inkscape:window-x="0"
     inkscape:window-y="27"
     inkscape:window-maximized="0"
     inkscape:current-layer="svg2" /><g
     id="c40_rss"
     style="fill:#ffffff"><path
       style="fill:#ffffff"
       d="M3.607,17.099C1.618,17.099,0,18.716,0,20.707c0,1.984,1.618,3.604,3.607,3.604   s3.607-1.619,3.607-3.604C7.214,18.716,5.596,17.099,3.607,17.099z"
       id="path5" /><path
       style="fill:#ffffff"
       d="M0.375,7.941C0.169,7.941,0,8.11,0,8.318v4.578c0,0.206,0.169,0.374,0.375,0.374   c5.879,0,10.665,4.784,10.665,10.665c0,0.205,0.166,0.375,0.375,0.375h4.581h0.016c0.209,0,0.377-0.17,0.377-0.375l-0.018-0.117   C16.305,15.054,9.152,7.941,0.375,7.941z"
       id="path7" /><path
       style="fill:#ffffff"
       d="M24.311,23.818C24.246,10.671,13.531,0,0.375,0C0.169,0,0,0.169,0,0.377v4.711   c0,0.207,0.169,0.375,0.375,0.375c10.186,0,18.472,8.287,18.472,18.473c0,0.205,0.168,0.375,0.373,0.375h4.713h0.02   c0.205,0,0.379-0.17,0.379-0.375L24.311,23.818z"
       id="path9" /></g><g
     id="Capa_1" /></svg>