<?xml version="1.0" encoding="UTF-8" standalone="no"?>
<!-- Generator: Adobe Illustrator 16.0.0, SVG Export Plug-In . SVG Version: 6.00 Build 0)  -->

<svg
   xmlns:dc="http://purl.org/dc/elements/1.1/"
   xmlns:cc="http://creativecommons.org/ns#"
   xmlns:rdf="http://www.w3.org/1999/02/22-rdf-syntax-ns#"
   xmlns:svg="http://www.w3.org/2000/svg"
   xmlns="http://www.w3.org/2000/svg"
   xmlns:sodipodi="http://sodipodi.sourceforge.net/DTD/sodipodi-0.dtd"
   xmlns:inkscape="http://www.inkscape.org/namespaces/inkscape"
   version="1.1"
   id="Capa_1"
   x="0px"
   y="0px"
   width="37.065px"
   height="32.113px"
   viewBox="0 0 37.065 32.113"
   style="enable-background:new 0 0 37.065 32.113;"
   xml:space="preserve"
   inkscape:version="0.48.4 r9939"
   sodipodi:docname="photo1.svg"><metadata
     id="metadata41"><rdf:RDF><cc:Work
         rdf:about=""><dc:format>image/svg+xml</dc:format><dc:type
           rdf:resource="http://purl.org/dc/dcmitype/StillImage" /></cc:Work></rdf:RDF></metadata><defs
     id="defs39" /><sodipodi:namedview
     pagecolor="#ffffff"
     bordercolor="#666666"
     borderopacity="1"
     objecttolerance="10"
     gridtolerance="10"
     guidetolerance="10"
     inkscape:pageopacity="0"
     inkscape:pageshadow="2"
     inkscape:window-width="640"
     inkscape:window-height="480"
     id="namedview37"
     showgrid="false"
     inkscape:zoom="7.3490489"
     inkscape:cx="18.532499"
     inkscape:cy="16.056499"
     inkscape:window-x="65"
     inkscape:window-y="34"
     inkscape:window-maximized="0"
     inkscape:current-layer="Capa_1" /><path
     d="M36.786,10.079L15.787,0.048c-0.246-0.117-0.539-0.014-0.655,0.228l-4.569,9.565h2.488l3.357-7.03l18.204,8.697  l-5.693,11.917l-3.203-1.533v6.301l1.967,0.942c0.246,0.116,0.539,0.012,0.654-0.232l8.682-18.171  C37.133,10.489,37.032,10.195,36.786,10.079z"
     id="path3"
     style="fill:#ffffff" /><path
     d="M23.764,10.996H0.492C0.221,10.996,0,11.216,0,11.485v20.138c0,0.271,0.221,0.49,0.492,0.49h23.272  c0.273,0,0.49-0.219,0.49-0.49V11.485C24.254,11.216,24.038,10.996,23.764,10.996z M22.418,26.428H2.246V13.223h20.172V26.428z"
     id="path5"
     style="fill:#ffffff" /><g
     id="g7" /><g
     id="g9" /><g
     id="g11" /><g
     id="g13" /><g
     id="g15" /><g
     id="g17" /><g
     id="g19" /><g
     id="g21" /><g
     id="g23" /><g
     id="g25" /><g
     id="g27" /><g
     id="g29" /><g
     id="g31" /><g
     id="g33" /><g
     id="g35" /></svg>