<?xml version="1.0" encoding="UTF-8" standalone="no"?>
<!-- Generator: Adobe Illustrator 16.0.4, SVG Export Plug-In . SVG Version: 6.00 Build 0)  -->

<svg
   xmlns:dc="http://purl.org/dc/elements/1.1/"
   xmlns:cc="http://creativecommons.org/ns#"
   xmlns:rdf="http://www.w3.org/1999/02/22-rdf-syntax-ns#"
   xmlns:svg="http://www.w3.org/2000/svg"
   xmlns="http://www.w3.org/2000/svg"
   xmlns:sodipodi="http://sodipodi.sourceforge.net/DTD/sodipodi-0.dtd"
   xmlns:inkscape="http://www.inkscape.org/namespaces/inkscape"
   version="1.1"
   id="Capa_1"
   x="0px"
   y="0px"
   width="16px"
   height="16px"
   viewBox="0 0 16 16"
   enable-background="new 0 0 16 16"
   xml:space="preserve"
   inkscape:version="0.48.4 r9939"
   sodipodi:docname="faq.svg"><metadata
     id="metadata9"><rdf:RDF><cc:Work
         rdf:about=""><dc:format>image/svg+xml</dc:format><dc:type
           rdf:resource="http://purl.org/dc/dcmitype/StillImage" /></cc:Work></rdf:RDF></metadata><defs
     id="defs7" /><sodipodi:namedview
     pagecolor="#ffffff"
     bordercolor="#666666"
     borderopacity="1"
     objecttolerance="10"
     gridtolerance="10"
     guidetolerance="10"
     inkscape:pageopacity="0"
     inkscape:pageshadow="2"
     inkscape:window-width="640"
     inkscape:window-height="480"
     id="namedview5"
     showgrid="false"
     inkscape:zoom="14.75"
     inkscape:cx="8"
     inkscape:cy="8"
     inkscape:window-x="65"
     inkscape:window-y="34"
     inkscape:window-maximized="0"
     inkscape:current-layer="Capa_1" /><path
     d="M8,0C3.582,0,0,3.582,0,8s3.582,8,8,8s8-3.582,8-8S12.418,0,8,0z M9.23,13H6.88v-1.939H9.23V13z M11.486,7.346  c-0.199,0.241-0.584,0.55-1.151,0.927l-0.56,0.37c-0.305,0.2-0.508,0.436-0.607,0.705c-0.062,0.17-0.098,0.435-0.104,0.791H6.935  c0.032-0.756,0.116-1.279,0.253-1.566C7.325,8.283,7.677,7.95,8.245,7.574L8.82,7.19l0.457-0.396  c0.211-0.247,0.315-0.518,0.315-0.813c0-0.34-0.116-0.65-0.352-0.93c-0.233-0.28-0.661-0.42-1.281-0.42  c-0.61,0-1.043,0.173-1.298,0.518C6.407,5.494,6.28,5.852,6.28,6.224H4c0.063-1.276,0.587-2.181,1.57-2.713  C6.19,3.17,6.953,3,7.858,3c1.188,0,2.176,0.242,2.962,0.726C11.605,4.21,12,4.925,12,5.874C12,6.456,11.829,6.946,11.486,7.346z"
     id="path3"
     style="fill:#ffffff" /></svg>